<?xml version="1.0" encoding="UTF-8" standalone="no"?>
<!-- Created with Inkscape (http://www.inkscape.org/) -->

<svg
   version="1.0"
   id="svg2"
   sodipodi:version="0.32"
   inkscape:version="1.1.2 (0a00cf5339, 2022-02-04)"
   sodipodi:docname="logo.svg"
   width="128"
   height="128"
   inkscape:export-filename="logo.png"
   inkscape:export-xdpi="232.44"
   inkscape:export-ydpi="232.44"
   xmlns:inkscape="http://www.inkscape.org/namespaces/inkscape"
   xmlns:sodipodi="http://sodipodi.sourceforge.net/DTD/sodipodi-0.dtd"
   xmlns:xlink="http://www.w3.org/1999/xlink"
   xmlns="http://www.w3.org/2000/svg"
   xmlns:svg="http://www.w3.org/2000/svg"
   xmlns:rdf="http://www.w3.org/1999/02/22-rdf-syntax-ns#"
   xmlns:cc="http://creativecommons.org/ns#"
   xmlns:dc="http://purl.org/dc/elements/1.1/">
  <metadata
     id="metadata371">
    <rdf:RDF>
      <cc:Work
         rdf:about="">
        <dc:format>image/svg+xml</dc:format>
        <dc:type
           rdf:resource="http://purl.org/dc/dcmitype/StillImage" />
      </cc:Work>
    </rdf:RDF>
  </metadata>
  <sodipodi:namedview
     inkscape:window-height="1406"
     inkscape:window-width="1719"
     inkscape:pageshadow="2"
     inkscape:pageopacity="0.0"
     guidetolerance="10.0"
     gridtolerance="10.0"
     objecttolerance="10.0"
     borderopacity="1.0"
     bordercolor="#666666"
     pagecolor="#ffffff"
     id="base"
     inkscape:zoom="2.1732797"
     inkscape:cx="30.598915"
     inkscape:cy="60.047495"
     inkscape:window-x="3640"
     inkscape:window-y="0"
     inkscape:current-layer="svg2"
     width="128pt"
     height="40mm"
     units="px"
     inkscape:showpageshadow="2"
     inkscape:pagecheckerboard="0"
     inkscape:deskcolor="#d1d1d1"
     inkscape:document-units="pt"
     showgrid="false"
     inkscape:window-maximized="0" />
  <defs
     id="defs4">
    <linearGradient
       id="linearGradient2795">
      <stop
         style="stop-color:#b8b8b8;stop-opacity:0.49803922;"
         offset="0"
         id="stop2797" />
      <stop
         style="stop-color:#7f7f7f;stop-opacity:0;"
         offset="1"
         id="stop2799" />
    </linearGradient>
    <linearGradient
       id="linearGradient2787">
      <stop
         style="stop-color:#7f7f7f;stop-opacity:0.5;"
         offset="0"
         id="stop2789" />
      <stop
         style="stop-color:#7f7f7f;stop-opacity:0;"
         offset="1"
         id="stop2791" />
    </linearGradient>
    <linearGradient
       id="linearGradient3676">
      <stop
         style="stop-color:#b2b2b2;stop-opacity:0.5;"
         offset="0"
         id="stop3678" />
      <stop
         style="stop-color:#b3b3b3;stop-opacity:0;"
         offset="1"
         id="stop3680" />
    </linearGradient>
    <linearGradient
       id="linearGradient3236">
      <stop
         style="stop-color:#f4f4f4;stop-opacity:1"
         offset="0"
         id="stop3244" />
      <stop
         style="stop-color:white;stop-opacity:1"
         offset="1"
         id="stop3240" />
    </linearGradient>
    <linearGradient
       id="linearGradient4671">
      <stop
         style="stop-color:#ffd43b;stop-opacity:1;"
         offset="0"
         id="stop4673" />
      <stop
         style="stop-color:#ffe873;stop-opacity:1"
         offset="1"
         id="stop4675" />
    </linearGradient>
    <linearGradient
       id="linearGradient4689">
      <stop
         style="stop-color:#5a9fd4;stop-opacity:1;"
         offset="0"
         id="stop4691" />
      <stop
         style="stop-color:#306998;stop-opacity:1;"
         offset="1"
         id="stop4693" />
    </linearGradient>
    <linearGradient
       x1="224.23996"
       y1="144.75717"
       x2="-65.308502"
       y2="144.75717"
       id="linearGradient2987"
       xlink:href="#linearGradient4671"
       gradientUnits="userSpaceOnUse"
       gradientTransform="translate(100.2702,99.61116)" />
    <linearGradient
       x1="172.94208"
       y1="77.475983"
       x2="26.670298"
       y2="76.313133"
       id="linearGradient2990"
       xlink:href="#linearGradient4689"
       gradientUnits="userSpaceOnUse"
       gradientTransform="translate(100.2702,99.61116)" />
    <linearGradient
       inkscape:collect="always"
       xlink:href="#linearGradient4689"
       id="linearGradient2587"
       gradientUnits="userSpaceOnUse"
       gradientTransform="translate(100.2702,99.61116)"
       x1="172.94208"
       y1="77.475983"
       x2="26.670298"
       y2="76.313133" />
    <linearGradient
       inkscape:collect="always"
       xlink:href="#linearGradient4671"
       id="linearGradient2589"
       gradientUnits="userSpaceOnUse"
       gradientTransform="translate(100.2702,99.61116)"
       x1="224.23996"
       y1="144.75717"
       x2="-65.308502"
       y2="144.75717" />
    <linearGradient
       inkscape:collect="always"
       xlink:href="#linearGradient4689"
       id="linearGradient2248"
       gradientUnits="userSpaceOnUse"
       gradientTransform="translate(100.2702,99.61116)"
       x1="172.94208"
       y1="77.475983"
       x2="26.670298"
       y2="76.313133" />
    <linearGradient
       inkscape:collect="always"
       xlink:href="#linearGradient4671"
       id="linearGradient2250"
       gradientUnits="userSpaceOnUse"
       gradientTransform="translate(100.2702,99.61116)"
       x1="224.23996"
       y1="144.75717"
       x2="-65.308502"
       y2="144.75717" />
    <linearGradient
       inkscape:collect="always"
       xlink:href="#linearGradient4671"
       id="linearGradient2255"
       gradientUnits="userSpaceOnUse"
       gradientTransform="matrix(0.562541,0,0,0.567972,-11.5974,-7.60954)"
       x1="224.23996"
       y1="144.75717"
       x2="-65.308502"
       y2="144.75717" />
    <linearGradient
       inkscape:collect="always"
       xlink:href="#linearGradient4689"
       id="linearGradient2258"
       gradientUnits="userSpaceOnUse"
       gradientTransform="matrix(0.562541,0,0,0.567972,-11.5974,-7.60954)"
       x1="172.94208"
       y1="76.176224"
       x2="26.670298"
       y2="76.313133" />
    <radialGradient
       inkscape:collect="always"
       xlink:href="#linearGradient2795"
       id="radialGradient2801"
       cx="61.518883"
       cy="132.28575"
       fx="61.518883"
       fy="132.28575"
       r="29.036913"
       gradientTransform="matrix(1,0,0,0.177966,0,108.7434)"
       gradientUnits="userSpaceOnUse" />
  </defs>
  <g
     id="g13374"
     transform="translate(-1.5904754,18.905779)">
    <rect
       style="fill:#306998;fill-opacity:1;stroke:none;stroke-width:1.80463;stroke-linecap:round;stroke-linejoin:round;stroke-miterlimit:4;stroke-dasharray:none;stroke-dashoffset:0;stroke-opacity:1"
       id="rect2643"
       width="128"
       height="128"
       x="1.5904754"
       y="-18.905779" />
    <path
       d="m 42.046156,-15.992789 c -2.527111,0 -4.559264,2.03215 -4.559264,4.55926 V 3.2416008 h 9.118527 V -11.433529 c 0,-2.52711 -2.032148,-4.55926 -4.559263,-4.55926 z m 15.67247,0 c -2.527112,0 -4.523644,2.03215 -4.523644,4.55926 V 3.2416008 h 9.118527 V -11.433529 c 0,-2.52711 -2.067772,-4.55926 -4.594883,-4.55926 z m 15.743707,0 c -2.527112,0 -4.594883,2.03215 -4.594883,4.55926 V 3.2416008 h 9.118527 V -11.433529 c 0,-2.52711 -1.996532,-4.55926 -4.523644,-4.55926 z m 15.708092,0 c -2.52712,0 -4.59489,2.03215 -4.59489,4.55926 V 3.2416008 h 9.11853 V -11.433529 c 0,-2.52711 -1.99653,-4.55926 -4.52364,-4.55926 z M 39.232236,6.4117208 c -6.832969,0 -12.359878,5.4912802 -12.359878,12.3242602 v 24.759821 c 4.879223,0.007 8.342537,0.0149 8.715583,0.02 1.186545,-4.75973 2.22523,-8.994271 2.99647,-11.805551 0.444866,-1.6216 0.812505,-2.90779 1.186566,-3.92702 0.374059,-1.01924 0.331123,-1.71271 1.674104,-2.72042 0.335745,-0.25193 0.883421,-0.53702 1.556116,-0.55655 0.672703,-0.0195 1.329055,0.27097 1.718628,0.58104 0.779154,0.62013 0.9043,1.14389 1.070804,1.60286 0.333008,0.91795 0.492907,1.87089 0.672313,3.23022 0.358814,2.71866 0.674199,6.827463 1.070804,12.526851 v 0.0223 c 0.338163,5.56135 0.672031,9.66969 0.999565,12.99212 0.59646,-3.31161 1.219326,-7.04788 1.905631,-10.69023 0.01,-0.0897 0.01223,-0.0977 0.02226,-0.187 1.444466,-12.844361 2.558806,-21.375801 3.461746,-26.725561 0.454617,-2.69349 0.84645,-4.58791 1.233316,-5.94842 0.193432,-0.68025 0.384326,-1.23771 0.650052,-1.7676 0.265734,-0.5299002 0.499916,-1.3610902 1.999129,-1.7186302 0.749608,-0.17878 1.658831,0.0945 2.137156,0.44078 0.478333,0.34627 0.678504,0.67756 0.837052,0.95282 0.3171,0.5505202 0.432929,0.9781402 0.558777,1.4648402 0.251692,0.97341 0.415532,2.12022 0.581039,3.43949 0.331021,2.63853 0.604043,5.90512 0.906065,8.57533 v 0.0223 l 0.02226,0.0245 c 1.837502,20.893951 2.576406,30.460441 3.370471,39.439411 1.00803,-8.29186 2.1656,-18.51938 3.532984,-29.189971 0.884587,-6.90294 1.725931,-12.85704 2.46218,-16.33811 0.184063,-0.87026 0.354158,-1.59137 0.558777,-2.20839 0.102308,-0.30851 0.207871,-0.58916 0.394038,-0.93055 0.186175,-0.3414 0.321638,-0.9492 1.580604,-1.34686 0.629487,-0.19882 1.545829,-0.0657 2.068142,0.25602 0.522322,0.32173 0.734114,0.65158 0.883803,0.90606 0.299386,0.50897 0.342968,0.82202 0.418526,1.16208 0.14394,0.64773 0.213876,1.39372 0.278276,2.34642 h 0.02449 c 2.32825,20.466831 3.74923,31.846511 4.87984,39.764431 1.59607,-13.81741 2.72485,-22.109958 3.5775,-26.169011 0.22734,-1.08223 0.43472,-1.89295 0.67454,-2.57794 0.11992,-0.3425 0.24205,-0.65306 0.44302,-0.99957 0.20097,-0.3465 0.44261,-0.83496 1.27784,-1.23332 0.83524,-0.39835 2.26893,-0.0747 2.8117,0.39627 0.54272,0.47099 0.67556,0.85024 0.81256,1.16208 0.27401,0.62366 0.38469,1.14639 0.51203,1.78986 0.50932,2.57391 0.85867,6.675129 1.37134,10.109191 0.25634,1.71703 0.55093,3.25267 0.83705,4.11402 1.84948,-0.004 6.441175,-0.0569 8.655475,-0.1024 V 18.736031 c 0,-6.83298 -5.491285,-12.3242602 -12.324255,-12.3242602 z M 9.0627349,16.990631 c -2.527115,0 -4.559264,1.99653 -4.559264,4.52365 0,2.52711 2.032149,4.59488 4.559264,4.59488 H 23.737864 v -9.11853 z m 98.3803551,0 v 9.11853 h 14.67513 c 2.52711,0 4.55926,-2.03215 4.55926,-4.55926 0,-2.52711 -2.03215,-4.55927 -4.55926,-4.55927 z m -49.406117,6.35359 c -0.798773,5.27455 -1.660201,11.28906 -2.858446,21.961491 l -0.02226,0.0935 v 0.069 c -0.764748,4.04082 -1.480462,8.4214 -2.161643,12.10832 -0.681172,3.68692 -1.098133,6.39369 -2.161644,8.41281 -0.265875,0.50478 -0.501366,1.19134 -1.743116,1.64962 -0.620874,0.22914 -1.526526,0.17425 -2.114893,-0.11576 -0.58836,-0.29002 -0.895063,-0.66273 -1.115328,-0.97508 -0.881046,-1.24937 -0.96353,-2.27284 -1.277841,-4.06727 -0.628038,-3.58547 -1.20577,-9.74288 -1.812129,-19.70857 -5.73e-4,-0.009 5.74e-4,-0.0129 0,-0.0223 -0.196802,-2.82729 -0.343225,-4.05612 -0.512026,-6.088661 -0.730004,2.829781 -1.448243,5.580831 -2.511157,9.830911 l -0.463051,1.85888 -1.905629,-0.0468 c 0,0 -4.413657,-0.03 -10.505451,-0.0423 v 23.19036 c 0,6.83297 5.526909,12.35987 12.359877,12.35987 h 52.716489 c 6.83297,0 12.324255,-5.5269 12.324255,-12.35987 v -23.00781 c -3.1073,0.004 -6.414395,0.0223 -9.539275,0.0223 -1.09537,0 -2.17239,-0.53884 -2.62692,-1.11533 -0.53743,-0.68164 -0.78714,-1.33938 -1.02183,-2.04588 -0.42306,-1.27366 -0.70039,-2.81718 -0.95281,-4.43905 -0.65532,4.6976 -1.41354,10.78003 -2.37091,19.19654 v 0.0245 0.0222 c -0.53653,3.97227 -0.9032,7.08451 -1.44035,9.08737 -0.13429,0.50071 -0.24861,0.9241 -0.58104,1.4871 -0.16622,0.2815 -0.39079,0.64195 -0.95282,0.99956 -0.56202,0.3576 -1.63648,0.49844 -2.34642,0.20926 -1.41987,-0.57836 -1.45511,-1.2955 -1.6741,-1.81213 -0.21898,-0.51662 -0.39258,-1.05071 -0.55878,-1.72085 -1.0959,-4.41911 -2.706616,-17.41409 -5.111358,-38.183831 -0.216481,1.58637 -0.384034,2.29212 -0.605527,4.02052 -1.758999,13.726571 -3.639759,31.039311 -4.601562,37.834311 -0.319399,2.25655 -0.575393,4.05826 -0.837052,5.41636 -0.13083,0.67904 -0.273333,1.24092 -0.4163,1.74312 -0.142958,0.50218 -0.171641,0.88454 -0.699027,1.5806 -0.263689,0.34805 -0.827857,0.97639 -1.90563,1.04409 -1.077767,0.0677 -1.878221,-0.60998 -2.183906,-0.99734 -0.611365,-0.77474 -0.59295,-1.16017 -0.721288,-1.6741 -0.256662,-1.02786 -0.453097,-2.37781 -0.672314,-4.2988 -0.875669,-7.67358 -2.00534,-24.11497 -4.370036,-51.013441 -0.0029,-0.0365 0.0029,-0.0325 0,-0.069 -0.01539,-0.1371 -0.0315,-0.27931 -0.04675,-0.41852 z m -48.9742381,9.3545 c -2.527115,0 -4.559264,1.99653 -4.559264,4.523641 0,2.52712 2.032149,4.59489 4.559264,4.59489 H 23.737864 v -9.118531 z m 98.3803551,0 v 9.118531 h 14.67513 c 2.52711,0 4.55926,-2.06777 4.55926,-4.59489 0,-2.527111 -2.03215,-4.523641 -4.55926,-4.523641 z M 9.0627349,48.371192 c -2.527115,0 -4.559264,2.06777 -4.559264,4.59488 0,2.52711 2.032149,4.52365 4.559264,4.52365 H 23.737864 v -9.11853 z m 98.3803551,0 v 9.11853 h 14.67513 c 2.52711,0 4.55926,-1.99654 4.55926,-4.52365 0,-2.52711 -2.03215,-4.59488 -4.55926,-4.59488 z M 9.0627349,64.079282 c -2.527115,0 -4.559264,2.03215 -4.559264,4.55926 0,2.52711 2.032149,4.55926 4.559264,4.55926 H 23.737864 v -9.11852 z m 98.3803551,0 v 9.11852 h 14.67513 c 2.52711,0 4.55926,-1.99653 4.55926,-4.52364 0,-2.52711 -2.03215,-4.59488 -4.55926,-4.59488 z m -22.353295,3.93147 c 0.0156,0.0437 0.0596,0.18674 0.069,0.20926 0.0249,0.0587 0.0524,-0.0474 -0.069,-0.20926 z m -47.602903,18.93608 v 14.675138 c 0,2.52711 1.996533,4.55926 4.523645,4.55926 2.527114,0 4.594882,-2.03215 4.594882,-4.55926 V 86.946832 Z m 15.70809,0 v 14.675138 c 0,2.52711 1.996531,4.55926 4.523644,4.55926 2.527111,0 4.594883,-2.03215 4.594883,-4.55926 V 86.946832 Z m 15.672468,0 v 14.675138 c 0,2.52711 2.067771,4.55926 4.594883,4.55926 2.527112,0 4.523644,-2.03215 4.523644,-4.55926 V 86.946832 Z m 15.708085,0 v 14.675138 c 0,2.52711 2.03215,4.55926 4.55927,4.55926 2.52711,0 4.55926,-2.03215 4.55926,-4.55926 V 86.946832 Z"
       id="path348"
       style="fill:#ffd43c;fill-opacity:1;stroke-width:1.08492" />
  </g>
</svg>
